<svg xmlns="http://www.w3.org/2000/svg" viewBox="0 0 726.4 817">
<path fill="#2BA3B8" class="st0" d="M692.1,18.3c17.6,14.3,30,34,33.7,56.6c2.4,25.1-2.3,49.9-18.5,69.9c-7.2,8.1-14.9,15.4-23.3,22.1
	c-3.3,2.6-6.5,5.4-9.7,8.1c-0.6,0.5-1.2,1-1.8,1.5c-1.8,1.6-3.6,3.1-5.4,4.7c-13.3,11.4-13.3,11.4-19.4,16.4
	c-5.1,4.1-10.1,8.4-15,12.8c-4.5,3.9-9.1,7.7-13.7,11.4c-3.5,2.9-6.9,5.9-10.4,8.9c-5.1,4.5-10.3,8.8-15.6,13.1
	c-3.5,2.9-6.9,5.9-10.4,8.9c-5.3,4.6-10.5,9.1-16,13.5c-1.7,1.3-3.3,2.7-4.9,4.1c-20.5,17.2-44.2,22.7-70.6,21c-10-1.2-19-4.5-28-9
	c-2.9-1.2-2.9-1.2-5.6-0.4c-2.6,1.6-4.4,3.2-6.5,5.4c-2.3,2.4-4.1,4.2-6.9,6c-0.4,1.9-0.4,1.9-0.3,4.2c0,0.9,0,1.7,0,2.6
	c0,0.9,0,1.9,0,2.8c0,1,0,1.9,0,2.9c0,3,0.1,6.1,0.1,9.1c0,2.1,0,4.1,0,6.2c0,5.1,0.1,10.1,0.1,15.2
	c57.8,19.7,118.6,28.9,179.4,32.4c1.1,0.1,2.3,0.1,3.5,0.2c2.1,0.1,4.2,0.2,6.3,0.3c6.3,0.4,11,1.7,15.9,6c3.4,4.7,4.4,9,4.4,14.7
	c-1,5.4-4.1,9.4-7.6,13.5c-0.8,1-1.6,1.9-2.4,2.9c-0.8,1-1.6,1.9-2.4,2.9c-1.4,1.7-2.8,3.5-4.2,5.2c-10.8,13.2-22.2,25.8-33.7,38.3
	c-2.7,3-5.4,6-8.1,9c-5.4,6.1-11.3,11.8-17.1,17.5c-4.3,4.3-8.5,8.6-12.4,13.2c-1.7,2-3.5,3.9-5.4,5.8c-0.6,0.6-1.2,1.2-1.8,1.8
	c-2,1.8-4,3.6-6,5.4c-4.5,3.9-8.6,8.1-12.8,12.3c-4.8,4.8-9.5,9.5-14.7,13.9c-1.8,1.6-3.6,3.3-5.3,5.1c-2.9,3-6,5.8-9.2,8.5
	c-2.7,2.3-5.3,4.8-7.9,7.2c-6.1,5.6-12.3,11-18.6,16.3c-2.9,2.5-5.9,5-8.8,7.5c-1.2,1-2.3,2-3.5,3c-2.3,2-4.7,4-7,6
	c-2.9,2.5-5.8,5-8.8,7.5c-1.1,1-2.2,1.9-3.4,2.9c-6.5,5.6-13.1,11-19.9,16.3c-4.5,3.5-8.9,7-13.2,10.6c-7.6,6.2-15.3,12.1-23.1,18
	c-2.8,2.1-5.5,4.2-8.3,6.3c-2.1,1.6-4.2,3.2-6.3,4.8c-3.2,2.5-6.5,5-9.7,7.4c-9.8,7.5-19.7,14.8-29.9,21.7
	c-3.4,2.3-6.8,4.7-10.2,7.1c-1.4,1-2.9,2-4.3,3c-2.3,1.6-4.5,3.2-6.8,4.8c-13.3,9.5-26.9,18.5-40.7,27.3c-0.8,0.5-1.6,1-2.4,1.6
	c-30.7,19.7-62.1,38-94.6,54.4c-1,0.5-2.1,1.1-3.2,1.6c-16.9,8.5-34.1,15.9-51.8,22.4c-0.9,0.4-1.9,0.7-2.9,1.1
	c-27.2,10.1-62.7,19.1-90.5,6.3c-15.5-8.5-25.9-23.8-31-40.6c-2.1-7.5-3.4-15-3.6-22.8c0-1-0.1-2.1-0.1-3.1
	c-0.5-24.9,5.3-49.4,13.1-72.9c0.3-0.9,0.6-1.9,0.9-2.8c12.6-37.6,30.9-74,51.1-108.2c0.6-1,1.2-2,1.8-3.1c3.8-6.4,7.6-12.7,11.4-19
	c1.1-1.8,2.2-3.7,3.4-5.5c14.1-23.4,29.4-46.2,45.4-68.4c1.1-1.5,2.2-3,3.3-4.5c2.2-3.1,4.4-6.1,6.7-9.2c1.9-2.6,3.8-5.2,5.6-7.9
	c5.8-8.2,11.9-16.2,18.1-24.1c2.7-3.4,5.3-6.9,7.9-10.4c4-5.4,8.2-10.6,12.5-15.8c3.6-4.4,7.1-8.8,10.6-13.3
	c6.2-8,12.8-15.7,19.4-23.4c1-1.2,2.1-2.4,3.1-3.6c0.5-0.6,1-1.2,1.5-1.8c3-3.5,5.9-7.1,8.8-10.7c4.4-5.4,9-10.4,13.7-15.4
	c2.1-2.3,4.2-4.6,6.3-7c3.6-4.1,7.3-8.1,11-12.1c2.7-2.9,5.3-5.8,7.9-8.8c4.5-5.2,9.4-10,14.3-14.8c3.5-3.5,6.9-6.9,10.1-10.7
	c2.3-2.7,4.6-5,7.5-7.1c0.6-0.5,1.3-0.9,2-1.4c3.9-2.4,7.3-2.4,11.8-2.1c6.3,1.9,10.1,4.4,14.8,8.8c20.5,18.4,43.9,32.3,68.2,45.2
	c0-1.6,0-1.6-0.1-3.3c-0.1-4.1-0.1-8.2-0.2-12.4c0-1.8-0.1-3.5-0.1-5.3c-0.3-11.7-0.1-20.2,7.6-29.7c0.7-0.7,1.4-1.3,2.1-2
	c1.2-1.1,1.2-1.1,2.4-2.2c0.8-0.7,1.5-1.4,2.3-2.1c0.7-0.6,1.4-1.2,2.1-1.9c2-1.7,3.9-3.4,5.9-5.1c1.5-1.3,3-2.6,4.5-3.9
	c1.2-1,2.3-2,3.5-3.1c-0.7-4.2-2-8-3.4-12c-7.8-22.8-5.9-47.3,4.4-69c7.8-14.9,19.5-26,32.2-36.5c2.2-1.8,4.4-3.7,6.7-5.6
	c1.1-0.9,2.1-1.8,3.2-2.7c4-3.4,8-6.8,12-10.3c4.1-3.5,8.2-6.9,12.3-10.3c5.1-4.1,10.1-8.4,15-12.8c4.5-3.9,9.1-7.7,13.7-11.4
	c3.5-2.9,6.9-5.9,10.4-8.9c5.1-4.5,10.3-8.8,15.6-13.1c3.5-2.9,6.9-5.9,10.4-8.9c5.2-4.5,10.5-9,15.8-13.3c1.9-1.5,3.7-3.1,5.5-4.7
	C608.6-4.5,657.4-9.1,692.1,18.3z M593.1,45.3c-0.5,0.4-1,0.9-1.6,1.4c-3,2.5-5.9,5-8.8,7.6c-3.3,2.9-6.7,5.7-10.1,8.6
	c-4.6,3.9-9.1,7.7-13.6,11.6c-4.1,3.5-8.2,6.9-12.3,10.3c-5.1,4.1-10.1,8.4-15,12.8c-4.5,3.9-9.1,7.7-13.7,11.4
	c-3.5,2.9-6.9,5.9-10.4,8.9c-5.1,4.5-10.3,8.8-15.6,13.1c-4.2,3.4-8.2,7-12.3,10.6c-3.8,3.3-7.6,6.4-11.4,9.6
	c-14.2,11.7-23,24.6-26.9,42.8c-0.7,10,0.4,18.7,2.8,28.4c3.4-1.5,5.8-3.4,8.5-5.9c1.3-1.2,1.3-1.2,2.6-2.4c2-1.8,3.9-3.6,5.9-5.5
	c18.4-17.1,18.4-17.1,29.8-17.6c6.5,0.2,12.3,2,17.2,6.3c6.4,6.9,7.4,13.5,7.2,22.8c-1,11.9-11.6,19.2-20.1,26.5
	c-3,2.6-5.8,5.2-8.7,7.9c-0.8,0.7-0.8,0.7-1.6,1.5c-1.3,1.2-2.6,2.4-3.9,3.6c0.8,2.2,0.8,2.2,3.1,2.9c16.5,4.5,33.8,3.4,49-4.9
	c6.3-3.9,11.8-8.7,17.3-13.6c2.3-2,4.6-3.9,7-5.8c0.9-0.7,1.7-1.4,2.6-2.2c2.2-1.8,4.4-3.5,6.7-5.2c6.9-5,6.9-5,11.2-12.1
	c0.1-3.2-0.3-5.9-1-9.1c-0.2-1.1-0.3-2.3-0.5-3.4c-2.7-15.5-10.5-28.2-22.8-38c-3.1-3-3.6-5.2-4-9.5c0.1-3.8,0.9-6.1,3.3-9.1
	c4.2-2.6,8.2-2.7,13-2c3.1,1.6,3.1,1.6,6,4c0.5,0.4,1.1,0.8,1.6,1.2c15.1,12,22.3,29.7,27.4,47.8c1.9-1.3,3.7-2.7,5.6-4.1
	c1.7-1.3,3.4-2.5,5.2-3.8c4.2-3.2,6.9-5.4,8-10.6c0.3-16.8-5.4-31.2-16.7-43.5c-1.6-1.4-3.2-2.7-4.9-4.1c-3.8-3.3-5.5-5.8-6.2-10.8
	c0.1-3.8,1.1-5.9,3.1-9.2c3.7-3.3,6.5-3.8,11.3-3.6c10.3,2.3,19,14.7,24.9,22.8c5.9,9.2,9.3,20.2,11.8,30.8
	c3.9-2.2,7.3-4.7,10.8-7.6c1-0.8,1.9-1.6,2.9-2.4c2.6-2.3,3.2-3.1,3.6-6.5c0.4-17.2-4.7-32-16.5-44.8c-2.3-2.3-4.7-4.3-7.3-6.3
	c-3-2.9-3.5-5.2-3.8-9.4c0.1-3.8,0.9-6.1,3.3-9.1c3.7-2.2,6.8-2.8,11.1-2.8c10.6,2.7,19.4,15,24.9,23.8c5.2,9,8.5,17.9,11,28
	c1,0,2,0,3,0c10.4-11.3,13.5-27.5,13.3-42.3c-0.4-5.5-1.5-10.5-3.3-15.7c-0.3-0.8-0.5-1.7-0.8-2.5c-5-14.4-16.9-26.6-30.2-33.5
	C638.7,22.4,614.8,26.8,593.1,45.3z M303.1,306.2c-0.8,0.8-1.6,1.6-2.5,2.5c-0.9,0.9-1.7,1.7-2.6,2.6c-0.8,0.8-1.7,1.7-2.6,2.5
	c-4.4,4.4-8.7,8.9-12.7,13.6c-2.5,2.8-5,5.6-7.6,8.3c-4.4,4.8-8.8,9.6-13,14.5c-1,1.1-1.9,2.2-2.9,3.3c-6.9,8-13.8,16-20.7,24
	c-1,1.1-1.9,2.2-2.9,3.3c-5.6,6.5-11.1,13.1-16.3,19.9c-2.9,3.7-5.9,7.4-8.9,11.1c-6.9,8.4-13.4,17-19.9,25.7
	c-2.8,3.8-5.7,7.6-8.6,11.3c-5,6.5-9.8,13.1-14.6,19.8c-2.1,2.9-4.2,5.8-6.3,8.6c-9.8,13.3-18.9,27.2-28.1,41
	c-2.2,3.4-4.4,6.7-6.7,10c-4.6,6.8-9,13.6-13.2,20.7c-1,1.7-2,3.4-3,5.1c-0.5,0.9-1,1.7-1.5,2.6c-1.5,2.6-3.1,5.1-4.6,7.7
	c-56.8,91.4-56.8,91.4-66.9,194.9c2.9,7.7,7,16.3,14.5,20.4c40.7,10.2,89.3-18.6,124.5-36.4c1-0.5,2-1,3-1.5
	c12.7-6.4,25-13.6,37.2-20.9c2.5-1.5,4.9-2.9,7.4-4.3c28.8-16.7,56.6-35.4,83.7-54.6c3.8-2.7,7.6-5.4,11.4-8
	c11.4-7.9,22.5-16.2,33.5-24.6c3.6-2.8,7.3-5.6,11-8.4c2.7-2,5.3-4.1,8-6.1c2.8-2.1,5.6-4.2,8.3-6.3c6.8-5.2,13.4-10.6,20-16
	c4.5-3.7,9-7.4,13.6-10.9c6.7-5.3,13.3-10.7,19.8-16.3c1.1-1,2.3-2,3.4-2.9c2.9-2.5,5.9-5,8.8-7.6c1.7-1.5,3.5-3,5.2-4.5
	c2.9-2.5,5.8-5,8.7-7.5c1.2-1,2.4-2.1,3.6-3.1c7.6-6.5,15.1-13.1,22.4-20c3-2.8,6-5.6,9.2-8.3c3.3-2.8,6.4-5.9,9.4-9
	c1.9-1.9,3.9-3.6,6-5.4c4.5-3.9,8.8-8.1,13-12.4c0.7-0.7,1.5-1.5,2.2-2.2c1.4-1.4,2.7-2.7,4.1-4.1c4.2-4.2,8.4-8.4,12.6-12.6
	c3-3,6-5.9,8.9-8.9c1.6-1.6,3.1-3.1,4.7-4.7c2.3-2.3,4.6-4.5,6.8-6.8c0.7-0.7,1.4-1.4,2.1-2.1c3.9-3.9,7.7-7.9,11.3-12.2
	c2.6-3,5.3-5.8,7.9-8.6c9.3-9.4,9.3-9.4,16.6-20.2c-1.2-0.1-2.4-0.3-3.7-0.4c-47.2-4.9-93.1-11.6-138.8-24.5
	c-0.8-0.2-1.5-0.4-2.3-0.6c-1.4-0.4-2.8-0.8-4.2-1.2c-2.8-0.8-5.1-1.3-8-1.3c0,0.8,0,1.6,0,2.4c-0.1,3.7-0.2,7.3-0.3,11
	c0,1.3,0,2.5-0.1,3.8c-0.3,10.3-1.1,19.4-8.5,27.1c-5.4,4.4-11.9,6.4-18.9,6c-6.6-0.9-12.9-3-17.2-8.3c-4.8-7.3-5.7-13.7-5.7-22.4
	c0-1.1,0-2.3,0-3.5c0-3.6-0.1-7.2-0.1-10.8c0-2.5,0-4.9-0.1-7.4c-0.1-6-0.1-12-0.1-18c-2.1-1.1-4.1-2.2-6.2-3.3
	c-1.8-0.9-3.5-1.8-5.3-2.8c-4.4-2.3-8.8-4.6-13.2-6.9c-20-10.5-38.8-23.2-56.6-37C306.7,301.2,306.6,302.7,303.1,306.2z"></path>
</svg>